<svg xmlns="http://www.w3.org/2000/svg" viewBox="0 0 64 64" role="img" aria-label="Novelki">
  <rect width="64" height="64" rx="16" fill="#020617"/>
  <path fill="#0f172a" stroke="#334155" stroke-width="2" d="M14 16h14c3 0 5.8 1.2 8 3.2 2.2-2 5-3.2 8-3.2h6v34h-8c-3.2 0-5.8.8-8 2.6-2.2-1.8-4.8-2.6-8-2.6H14z"/>
  <path fill="#e2e8f0" d="M20 22h8c2.4 0 4.6.9 6 2.4v22.2c-1.7-1.1-3.8-1.6-6-1.6h-8z"/>
  <path fill="#bae6fd" d="M36 24.4c1.4-1.5 3.6-2.4 6-2.4h2v23h-2c-2.2 0-4.3.5-6 1.6z"/>
  <path fill="#0891b2" d="M26 18h8v30h-8z" opacity=".16"/>
  <path fill="none" stroke="#0891b2" stroke-linecap="round" stroke-linejoin="round" stroke-width="4" d="M24 29h6l8 12V29h6"/>
  <path fill="#38bdf8" d="M45 13a3 3 0 1 1-6 0 3 3 0 0 1 6 0"/>
</svg>
